<svg width="509" height="509" viewBox="0 0 509 509" fill="none" xmlns="http://www.w3.org/2000/svg">
<path d="M0 92C0 41.1898 41.1898 0 92 0H254.5C395.056 0 509 113.944 509 254.5C509 395.056 395.056 509 254.5 509H92C41.1898 509 0 467.81 0 417V92Z" fill="#D9D9D9"/>
<path d="M95 254.5C95 177.456 157.456 115 234.5 115C311.544 115 374 177.456 374 254.5C374 331.544 311.544 394 234.5 394C157.456 394 95 331.544 95 254.5Z" fill="#EEC667"/>
<path d="M234.5 89.5C325.627 89.5 399.5 163.373 399.5 254.5C399.5 345.627 325.627 419.5 234.5 419.5C143.373 419.5 69.5 345.627 69.5 254.5C69.5 163.373 143.373 89.5 234.5 89.5Z" stroke="#618279" stroke-width="11"/>
</svg>
